<svg width="99" height="67" viewBox="0 0 99 67" fill="none" xmlns="http://www.w3.org/2000/svg">
<path d="M31 31.0001V3H43.5619C45.408 3 47.0803 3.41333 48.5786 4.24C50.1037 5.04 51.3077 6.16 52.1906 7.6C53.1003 9.04 53.5552 10.72 53.5552 12.64C53.5552 14.5067 53.1137 16.16 52.2308 17.6C51.3478 19.0133 50.184 20.1333 48.7391 20.96L51.3077 25.44C51.5217 25.7867 51.8428 25.96 52.2709 25.96H54V31.0001H51.388C50.2642 31.0001 49.2341 30.7201 48.2977 30.1601C47.388 29.6001 46.6656 28.8667 46.1304 27.96L42.9599 22.28H36.7391V31.0001H31ZM36.7391 17.24H42.8796C44.2441 17.24 45.408 16.84 46.3712 16.04C47.3344 15.24 47.8161 14.1067 47.8161 12.64C47.8161 11.2 47.3211 10.08 46.3311 9.28C45.3679 8.45334 44.2174 8.04 42.8796 8.04H36.7391V17.24Z" fill="#131313"/>
<path d="M21.7727 19.5V12.7045C21.7727 11.7732 21.5912 10.8972 21.2282 10.0763C20.8809 9.23973 20.3994 8.51362 19.7838 7.898C19.1682 7.28239 18.4421 6.80094 17.6055 6.45367C16.7847 6.09062 15.9086 5.90909 14.9773 5.90909C14.046 5.90909 13.162 6.09062 12.3254 6.45367C11.5046 6.80094 10.7864 7.28239 10.1707 7.898C9.55512 8.51362 9.06579 9.23973 8.70273 10.0763C8.35546 10.8972 8.18182 11.7732 8.18182 12.7045V19.5H21.7727Z" fill="#FDDC30"/>
<path d="M21.245 19.3031V13.4445C21.245 12.6416 21.0913 11.8863 20.7838 11.1786C20.4897 10.4574 20.082 9.83136 19.5606 9.30061C19.0392 8.76987 18.4243 8.35479 17.7158 8.0554C17.0206 7.74239 16.2787 7.58589 15.49 7.58589C14.7013 7.58589 13.9526 7.74239 13.2441 8.0554C12.549 8.35479 11.9407 8.76987 11.4194 9.30061C10.898 9.83136 10.4836 10.4574 10.1761 11.1786C9.88201 11.8863 9.73496 12.6416 9.73496 13.4445V19.3031H21.245ZM27 31H21.245V25.1414H9.73496V31H4V13.4445C4 11.8251 4.30078 10.3077 4.90235 8.89235C5.50392 7.46341 6.31938 6.2182 7.34874 5.15671C8.39146 4.09521 9.60796 3.25826 10.9983 2.64586C12.4019 2.03346 13.8992 1.72726 15.49 1.72726C17.0808 1.72726 18.5713 2.03346 19.9616 2.64586C21.3653 3.25826 22.5885 4.09521 23.6312 5.15671C24.6739 6.2182 25.4961 7.46341 26.0976 8.89235C26.6992 10.3077 27 11.8251 27 13.4445V31Z" fill="#131313"/>
<path d="M16 63V58H21.04V39.04H16V34H31.8V39.04H26.76V58H31.8V63H16Z" fill="#131313"/>
<rect x="71" y="38.48" width="20" height="20" fill="#30D3BD"/>
<path d="M80.5001 63C78.2876 63 76.2857 62.6272 74.4946 61.8815C72.7299 61.1093 71.2153 60.0574 69.951 58.7259C68.6867 57.3944 67.7121 55.8498 67.0273 54.0922C66.3424 52.3346 66 50.4573 66 48.46C66 46.4628 66.3424 44.5987 67.0273 42.8677C67.7121 41.1102 68.6867 39.5656 69.951 38.2341C71.2153 36.9026 72.7299 35.8641 74.4946 35.1184C76.2857 34.3728 78.2876 34 80.5001 34C82.7126 34 84.7012 34.3728 86.466 35.1184C88.2571 35.8641 89.7848 36.9026 91.0491 38.2341C92.3134 39.5656 93.2879 41.1102 93.9728 42.8677C94.6576 44.5987 95 46.4628 95 48.46C95 50.4573 94.6576 52.3346 93.9728 54.0922C93.2879 55.8498 92.3134 57.3944 91.0491 58.7259C89.7848 60.0574 88.2571 61.1093 86.466 61.8815C84.7012 62.6272 82.7126 63 80.5001 63ZM80.5001 57.927C82.2122 57.927 83.7267 57.5142 85.0436 56.6887C86.387 55.8631 87.4405 54.7447 88.2044 53.3333C88.9682 51.8953 89.3502 50.2708 89.3502 48.46C89.3502 46.6492 88.9682 45.0381 88.2044 43.6267C87.4405 42.2153 86.387 41.0968 85.0436 40.2713C83.7267 39.4458 82.2122 39.033 80.5001 39.033C78.8143 39.033 77.2998 39.4458 75.9565 40.2713C74.6132 41.0968 73.5595 42.2153 72.7957 43.6267C72.0318 45.0381 71.6499 46.6492 71.6499 48.46C71.6499 50.2708 72.0318 51.8953 72.7957 53.3333C73.5595 54.7447 74.6132 55.8631 75.9565 56.6887C77.2998 57.5142 78.8143 57.927 80.5001 57.927Z" fill="#131313"/>
<path d="M76.2801 30.9201C74.7067 30.9201 73.2801 30.5601 72.0001 29.8401C70.7467 29.1201 69.7601 28.1334 69.0401 26.88C68.3201 25.6267 67.9601 24.1867 67.9601 22.56V10.68C67.9601 9.96 67.6934 9.34666 67.1601 8.84C66.6534 8.30666 66.0401 8.04 65.3201 8.04C64.6001 8.04 63.9867 8.30666 63.48 8.84C62.9734 9.34666 62.68 9.96 62.68 10.68V31.4801H56.96V11.36C56.96 9.81333 57.3467 8.41333 58.04 7.16C58.7333 5.90667 59.7067 4.90667 60.96 4.16C62.2133 3.38667 63.6667 3 65.3201 3C67.0001 3 68.4667 3.38667 69.7201 4.16C70.9734 4.90667 71.9467 5.90667 72.6401 7.16C73.3334 8.41333 73.6801 9.81333 73.6801 11.36V23.24C73.6801 23.96 73.9334 24.5867 74.4401 25.12C74.9467 25.6267 75.5601 25.88 76.2801 25.88C77.0001 25.88 77.6134 25.6267 78.1201 25.12C78.6534 24.5867 78.9201 23.96 78.9201 23.24V11.36C78.9201 9.81333 79.2667 8.41333 79.9601 7.16C80.6534 5.90667 81.6267 4.90667 82.8801 4.16C84.1601 3.38667 85.6267 3 87.2801 3C88.9601 3 90.4134 3.38667 91.6401 4.16C92.8934 4.90667 93.8668 5.90667 94.5601 7.16C95.2534 8.41333 95.6001 9.81333 95.6001 11.36V31H89.8801V10.68C89.8801 9.96 89.6267 9.34666 89.1201 8.84C88.6134 8.30666 88.0001 8.04 87.2801 8.04C86.5601 8.04 85.9334 8.30666 85.4001 8.84C84.8934 9.34666 84.6401 9.96 84.6401 10.68V22.56C84.6401 24.1867 84.2667 25.6267 83.5201 26.88C82.8001 28.1334 81.8134 29.1201 80.5601 29.8401C79.3067 30.5601 77.8801 30.9201 76.2801 30.9201Z" fill="#131313"/>
<path d="M54.28 62.96C52.6267 62.96 51.1733 62.5867 49.92 61.84C48.6667 61.0667 47.6933 60.0533 47 58.8C46.3067 57.52 45.96 56.1199 45.96 54.5999V41.6799C45.96 40.9599 45.6933 40.3466 45.16 39.84C44.6533 39.3066 44.04 39.04 43.32 39.04C42.6 39.04 41.9867 39.3066 41.48 39.84C40.9733 40.3466 40.72 40.9599 40.72 41.6799V63H35V42.3599C35 40.8133 35.3467 39.4133 36.04 38.16C36.7333 36.9066 37.7067 35.9066 38.96 35.16C40.2133 34.3866 41.6667 34 43.32 34C45 34 46.4667 34.3866 47.72 35.16C48.9733 35.9066 49.9467 36.9066 50.64 38.16C51.3333 39.4133 51.68 40.8133 51.68 42.3599V55.2799C51.68 55.9999 51.9333 56.6266 52.44 57.16C52.9467 57.6666 53.56 57.92 54.28 57.92C55 57.92 55.6133 57.6666 56.12 57.16C56.6533 56.6266 56.96 55.9999 56.96 55.2799V34H62.68V54.5999C62.68 56.1199 62.2933 57.52 61.6 58.8C60.9067 60.0533 59.9333 61.0667 58.68 61.84C57.4267 62.5867 55.96 62.96 54.28 62.96Z" fill="#131313"/>
</svg>
