<?xml version="1.0" ?>

<!DOCTYPE svg  PUBLIC '-//W3C//DTD SVG 1.1//EN'  'http://www.w3.org/Graphics/SVG/1.1/DTD/svg11.dtd'>

<!-- Uploaded to: SVG Repo, www.svgrepo.com, Generator: SVG Repo Mixer Tools -->
<svg fill="#000000" width="800px" height="800px" viewBox="0 0 1069 1069" style="fill-rule:evenodd;clip-rule:evenodd;stroke-linejoin:round;stroke-miterlimit:2;" version="1.1" xml:space="preserve" xmlns="http://www.w3.org/2000/svg" xmlns:serif="http://www.serif.com/" xmlns:xlink="http://www.w3.org/1999/xlink">

<rect height="1066.67" id="Disk" style="fill:none;" width="1066.67" x="1.397" y="0.143"/>

<g>

<path d="M815.981,616.81c-0,-30.39 -12.072,-59.534 -33.561,-81.023c-21.488,-21.489 -50.633,-33.561 -81.023,-33.561c-92.064,0 -239.445,0 -331.51,0c-30.389,0 -59.534,12.072 -81.022,33.561c-21.489,21.489 -33.561,50.633 -33.561,81.023c0,121.596 0,333.333 0,333.333c0,17.259 13.991,31.25 31.25,31.25l498.177,-0c17.259,-0 31.25,-13.991 31.25,-31.25l-0,-333.333Zm-62.5,-0l-0,302.083c-0,-0 -435.677,-0 -435.677,-0c0,0 0,-302.083 0,-302.083c0,-13.814 5.487,-27.061 15.255,-36.829c9.767,-9.767 23.015,-15.255 36.828,-15.255c92.065,0 239.446,0 331.51,0c13.814,0 27.061,5.488 36.829,15.255c9.767,9.768 15.255,23.015 15.255,36.829Zm-281.25,239.583l125,-0c17.247,-0 31.25,-14.003 31.25,-31.25c-0,-17.248 -14.003,-31.25 -31.25,-31.25l-125,-0c-17.248,-0 -31.25,14.002 -31.25,31.25c-0,17.247 14.002,31.25 31.25,31.25Zm-218.75,-536.197c18.253,0 33.073,-14.82 33.073,-33.073c0,-18.254 -14.82,-33.074 -33.073,-33.074c-18.254,0 -33.074,14.82 -33.074,33.074c0,18.253 14.82,33.073 33.074,33.073Z" style="fill-opacity:0.5;"/>

<path d="M631.455,85.559c-0,0 -346.725,0 -346.725,0c-109.306,0.001 -197.916,88.611 -197.916,197.917c0,145.235 0,354.766 0,500c0,52.491 20.852,102.832 57.969,139.948c37.116,37.117 87.457,57.969 139.948,57.969c145.234,-0 354.765,-0 500,-0l1.28,-0.004c108.716,-0.688 196.636,-89.032 196.636,-197.912l0,-343.853c0,-51.855 -20.351,-101.639 -56.676,-138.644c-43.964,-44.788 -108.913,-110.954 -153.276,-156.147c-23.193,-23.628 -51.699,-40.827 -82.748,-50.432l-0.269,-0.084l-0.458,-0.139l-0.168,-0.052l-0.143,-0.043l-0.4,-0.122l-0.276,-0.082l-0.063,-0.019l-0.233,-0.069l-0.6,-0.179l-0.694,-0.202l-0.24,-0.07l-0.031,-0.008l-0.209,-0.061l-0.422,-0.12l-0.224,-0.064l-0.176,-0.05l-0.355,-0.101l-0.258,-0.072l-0.098,-0.027l-0.323,-0.089l-0.499,-0.139l-0.533,-0.144l-0.423,-0.115l-0.044,-0.012l-0.181,-0.049l-0.39,-0.103l-0.275,-0.074l-0.202,-0.052l-0.316,-0.084l-0.245,-0.063l-0.129,-0.034l-0.386,-0.099l-0.425,-0.109l-0.326,-0.082l-0.651,-0.164l-0.053,-0.013l-0.158,-0.04l-0.361,-0.088l-0.324,-0.08l-0.218,-0.053l-0.286,-0.07l-0.234,-0.055l-0.158,-0.039l-0.429,-0.101l-0.371,-0.088l-0.094,-0.022c-0.321,-0.075 -0.642,-0.149 -0.963,-0.223l-0.136,-0.032l-0.336,-0.075c0,-0 -0.369,-0.084 -0.369,-0.084l-0.23,-0.051l-0.261,-0.059l-0.225,-0.049l-0.185,-0.041l-0.457,-0.099l-0.33,-0.072l-0.092,-0.02c-0.33,-0.071 -0.659,-0.14 -0.989,-0.209l-0.119,-0.026l-0.312,-0.064l-0.412,-0.085l-0.238,-0.048l-0.239,-0.05l-0.219,-0.043l-0.21,-0.043l-0.473,-0.093l-0.301,-0.06l-0.091,-0.018c-0.337,-0.065 -0.674,-0.13 -1.011,-0.195l-0.103,-0.019l-0.291,-0.054l-0.453,-0.086l-0.242,-0.044l-0.221,-0.041l-0.214,-0.039l-0.233,-0.042l-0.482,-0.086l-0.28,-0.05l-0.09,-0.016c-0.343,-0.061 -0.687,-0.12 -1.031,-0.179l-0.089,-0.015l-0.27,-0.045l-0.494,-0.084l-0.242,-0.039l-0.206,-0.035l-0.211,-0.034l-0.254,-0.041l-0.486,-0.078l-0.263,-0.042l-0.092,-0.014c-0.348,-0.055 -0.697,-0.109 -1.047,-0.162l-0.076,-0.011l-0.249,-0.037l-0.534,-0.08l-0.241,-0.035l-0.193,-0.028l-0.209,-0.03l-0.275,-0.04l-0.484,-0.067l-0.25,-0.036l-0.094,-0.013c-0.355,-0.049 -0.708,-0.096 -1.062,-0.143l-0.064,-0.009l-0.229,-0.029l-0.574,-0.075l-0.238,-0.03l-0.181,-0.023l-0.207,-0.026l-0.295,-0.037l-0.481,-0.058l-0.244,-0.03l-0.093,-0.011c-0.357,-0.042 -0.715,-0.084 -1.074,-0.124l-0.053,-0.007l-0.207,-0.022l-0.616,-0.069l-0.232,-0.025l-0.171,-0.018l-0.207,-0.022l-0.314,-0.033l-0.474,-0.049l-0.232,-0.024l-0.1,-0.009c-0.363,-0.037 -0.724,-0.072 -1.086,-0.106l-0.043,-0.004l-0.182,-0.017l-0.66,-0.061l-0.227,-0.02l-0.161,-0.014l-0.206,-0.018l-0.333,-0.029l-0.466,-0.038l-0.226,-0.02l-0.104,-0.008c-0.366,-0.03 -0.73,-0.058 -1.095,-0.086l-0.034,-0.002l-0.155,-0.011l-0.706,-0.052l-0.22,-0.015l-0.152,-0.011l-0.206,-0.014l-0.352,-0.024l-0.456,-0.029l-0.221,-0.015l-0.108,-0.006c-0.367,-0.023 -0.735,-0.045 -1.103,-0.066l-0.025,-0.001l-0.124,-0.007l-0.757,-0.041l-0.212,-0.011l-0.144,-0.007l-0.206,-0.01l-0.37,-0.018l-0.446,-0.02l-0.216,-0.011l-0.113,-0.004c-0.371,-0.017 -0.741,-0.032 -1.11,-0.046l-0.016,-0l-0.089,-0.003l-0.811,-0.029l-0.204,-0.006l-0.136,-0.005l-0.207,-0.006c-0,0 -0.388,-0.012 -0.388,-0.012l-0.434,-0.011l-0.213,-0.006l-0.117,-0.003c-0.372,-0.009 -0.744,-0.017 -1.117,-0.024l-0.927,-0.016l-0.194,-0.002l-0.13,-0.002l-0.208,-0.002l-0.405,-0.005l-0.42,-0.003l-0.211,-0.002l-0.123,0l-0.183,-0.001l-0.938,-0.003Zm-273.94,62.5l-72.786,0c-74.788,0.002 -135.415,60.629 -135.415,135.417c0,145.235 0,354.766 0,500c0,35.915 14.267,70.359 39.663,95.754c25.395,25.396 59.839,39.663 95.754,39.663c145.234,-0 354.765,-0 500,-0l0.875,-0.003c74.384,-0.47 134.54,-60.916 134.541,-135.411l0,-343.855c0,-35.48 -13.924,-69.542 -38.778,-94.862c-43.965,-44.788 -108.914,-110.953 -153.276,-156.147c-5.037,-5.131 -10.44,-9.819 -16.146,-14.036l-0,29.211c-0,63.282 -51.301,114.583 -114.583,114.583c-39.268,-0 -85.998,-0 -125.266,-0c-63.283,-0 -114.583,-51.301 -114.583,-114.583l-0,-55.731Zm62.499,0l211.44,0l1.02,0.005c0,-0 0.306,0.003 0.306,0.003l0.748,0.009l0.311,0.005l0.976,0.02l0.053,0.002l0.997,0.029l0.324,0.011l0.718,0.027c-0,-0 0.335,0.014 0.335,0.014l0.902,0.041l0.106,0.005l0.048,0.003l0.942,0.051l0.352,0.021l0.679,0.042l0.364,0.024l0.826,0.059l0.17,0.012l0.092,0.007l0.881,0.07l0.379,0.033l0.641,0.056l0.39,0.035l0.762,0.074l0.223,0.021l0.124,0.013l0.834,0.087l0.397,0.044l0.615,0.069l0.406,0.048l0.72,0.087l0.257,0.032l0.137,0.017l0.81,0.105l0.142,0.02c0.006,0.24 0.006,54.529 0.006,54.529c-0.001,28.766 -23.319,52.084 -52.083,52.084c-39.268,-0 -85.998,-0 -125.266,-0c-28.764,-0 -52.082,-23.318 -52.083,-52.082l-0.001,-55.732Z"/>

</g>

</svg>